<?xml version="1.0" encoding="UTF-8" standalone="no"?>
<!DOCTYPE svg PUBLIC "-//W3C//DTD SVG 1.1//EN" "http://www.w3.org/Graphics/SVG/1.1/DTD/svg11.dtd">
<svg xmlns="http://www.w3.org/2000/svg" xmlns:dc="http://purl.org/dc/elements/1.1/" xmlns:xl="http://www.w3.org/1999/xlink" version="1.1" viewBox="0 0 211.66664 211.66664" width="211.66664" height="211.66664">
  <defs/>
  <g id="Canvas_1" stroke="none" stroke-dasharray="none" fill-opacity="1" stroke-opacity="1" fill="none">
    <title>Canvas 1</title>
    <g id="Canvas_1_Layer_1">
      <title>Layer 1</title>
      <g id="Group_2">
        <title>layer1</title>
        <g id="Graphic_7">
          <title>path1</title>
          <path d="M 106.32838 18.377687 C 52.576075 18.377866 9.00137 57.502996 9.001517 105.76614 C 9.001685 154.02908 52.5763 193.1539 106.32838 193.15408 C 160.08066 193.15416 203.6556 154.02927 203.65576 105.76614 C 203.65583 82.58928 193.40175 60.36166 175.14932 43.97314 C 156.89688 27.584613 132.14124 18.37765 106.32838 18.377687 Z M 106.56609 33.834106 C 151.1519 33.834008 187.29593 66.28687 187.29604 106.3196 C 187.29614 125.54408 178.79072 143.98121 163.6509 157.57499 C 148.51108 171.16876 127.97705 178.80565 106.56609 178.8056 C 85.15513 178.80565 64.6211 171.16876 49.48128 157.57498 C 34.341464 143.9812 25.83605 125.54408 25.836146 106.3196 C 25.836255 66.28687 61.98028 33.83401 106.56609 33.834106 Z" fill="#353f58"/>
        </g>
        <g id="Graphic_6">
          <title>path1-2-9</title>
          <path d="M 79.5322 82.38447 C 88.87185 92.95211 88.90825 110.08563 79.61351 120.65327 C 70.31882 131.22097 55.21276 131.22097 45.873164 120.65327 C 36.53352 110.08563 36.49712 92.95211 45.791857 82.38447 C 55.086547 71.81677 70.19261 71.81677 79.5322 82.38447 Z" fill="#353f58"/>
        </g>
        <g id="Graphic_5">
          <title>path1-2-9-4</title>
          <path d="M 166.54252 81.92182 C 175.88216 92.48946 175.91856 109.62298 166.62383 120.19062 C 157.32914 130.75832 142.22307 130.75832 132.88348 120.19062 C 123.54384 109.62298 123.50743 92.48946 132.80217 81.92182 C 142.09686 71.35412 157.20292 71.35412 166.54252 81.92182 Z" fill="#353f58"/>
        </g>
        <g id="Graphic_4">
          <title>path1-2-9-9</title>
          <path d="M 104.91455 125.80238 C 106.08088 127.63908 106.08542 130.61696 104.9247 132.45366 C 103.76398 134.29037 101.87754 134.29037 100.71122 132.45366 C 99.54489 130.61696 99.54034 127.63908 100.70107 125.80238 C 101.86178 123.96567 103.74822 123.96567 104.91455 125.80238 Z" fill="#353f58"/>
        </g>
        <g id="Graphic_3">
          <title>path1-2-9-9-0</title>
          <path d="M 113.58974 125.84117 C 114.75607 127.67787 114.76061 130.65575 113.59989 132.49245 C 112.43917 134.32916 110.55273 134.32916 109.38641 132.49245 C 108.22008 130.65575 108.21553 127.67787 109.37626 125.84117 C 110.53697 124.00446 112.42341 124.00446 113.58974 125.84117 Z" fill="#353f58"/>
        </g>
      </g>
    </g>
  </g>
</svg>
